<?xml version="1.0" standalone="no"?>
<!DOCTYPE svg PUBLIC "-//W3C//DTD SVG 20010904//EN"
 "http://www.w3.org/TR/2001/REC-SVG-20010904/DTD/svg10.dtd">
<svg version="1.0" xmlns="http://www.w3.org/2000/svg"
 width="719.000000pt" height="719.000000pt" viewBox="0 0 719.000000 719.000000"
 preserveAspectRatio="xMidYMid meet">
<metadata>
Created by potrace 1.14, written by Peter Selinger 2001-2017
</metadata>
<g transform="translate(0.000000,719.000000) scale(0.100000,-0.100000)"
fill="#000000" stroke="none">
<path d="M3328 7165 c-2 -1 -39 -5 -83 -8 -44 -4 -89 -8 -100 -10 -11 -3 -42
-8 -70 -12 -121 -17 -316 -77 -423 -128 -29 -14 -52 -24 -52 -22 0 3 98 78
147 111 l37 25 -34 -6 c-87 -14 -273 -98 -427 -192 -34 -21 -93 -57 -130 -80
-95 -58 -370 -254 -542 -387 -79 -61 -155 -120 -170 -131 -62 -46 -463 -376
-540 -443 -83 -73 -83 -74 -130 -67 -38 5 -56 1 -110 -25 -35 -17 -83 -43
-106 -59 -24 -16 -61 -31 -84 -34 -78 -9 -118 -55 -191 -222 -24 -55 -53 -108
-64 -118 -28 -25 -50 -43 -129 -106 -37 -30 -67 -59 -67 -65 0 -6 26 -40 58
-74 l57 -64 105 80 105 79 36 -41 c33 -37 41 -41 82 -40 36 1 58 10 113 47 38
25 94 69 124 97 90 83 85 81 212 81 130 1 161 -8 244 -71 69 -52 109 -74 165
-89 44 -12 46 -15 43 -44 -21 -181 -25 -415 -10 -587 6 -83 24 -202 41 -280
30 -136 30 -135 55 -221 55 -190 150 -418 234 -564 53 -92 98 -165 101 -165 3
0 -22 53 -54 118 -87 172 -148 327 -199 507 -37 129 -33 131 26 10 107 -221
228 -391 397 -561 231 -232 497 -399 789 -496 66 -22 122 -41 124 -43 6 -6
-81 -55 -158 -89 -102 -45 -57 -31 -385 -115 -148 -38 -299 -79 -335 -91 -113
-39 -364 -166 -480 -242 -92 -60 -127 -107 -160 -213 -7 -22 -32 -61 -56 -87
-24 -26 -45 -54 -45 -63 -1 -8 -2 -21 -3 -27 -1 -7 1 -26 4 -43 4 -20 -1 -51
-16 -91 -71 -192 43 -369 234 -364 118 3 126 2 174 -14 26 -9 98 -27 160 -40
96 -21 134 -24 253 -21 77 2 151 6 165 9 14 3 50 11 80 17 92 18 278 87 311
115 8 8 19 14 23 14 10 0 143 92 186 130 31 27 36 28 47 14 21 -28 156 -176
248 -273 212 -220 317 -311 362 -311 41 0 79 35 91 82 24 94 -4 141 -287 498
-64 80 -121 151 -128 158 -7 7 -13 14 -13 15 0 1 75 2 168 3 118 1 180 6 213
16 42 14 50 13 125 -8 119 -34 228 -52 305 -51 38 1 69 0 68 -3 0 -3 -21 -18
-46 -35 -58 -38 -108 -110 -117 -169 -10 -63 15 -139 70 -217 l46 -64 -6 -101
c-4 -55 -8 -109 -10 -120 -2 -10 -7 -68 -10 -129 -4 -60 -9 -126 -11 -145 -18
-157 -26 -571 -13 -680 10 -84 16 -95 59 -104 36 -7 64 6 174 82 100 69 139
113 160 179 17 53 23 157 11 208 -3 17 -8 39 -10 50 -2 11 -18 67 -34 125 -38
129 -43 158 -44 236 -1 118 58 197 196 263 61 28 99 40 153 45 142 12 261 71
369 182 110 112 209 287 258 457 14 49 28 69 90 130 213 213 319 505 261 721
-9 36 -34 84 -60 122 -61 85 -127 118 -238 120 -71 2 -80 4 -95 25 -87 127
-277 177 -446 119 -46 -16 -73 -19 -125 -14 -36 4 -67 8 -69 9 -2 2 36 29 85
60 148 96 211 146 346 275 154 147 305 349 361 485 16 39 46 108 67 155 47
106 86 212 114 315 17 63 26 80 41 81 10 1 36 5 56 9 36 7 37 7 32 -21 -8 -44
-22 -100 -51 -195 -19 -65 -35 -97 -64 -130 -44 -49 -54 -76 -46 -118 9 -44
-78 -202 -223 -406 -54 -76 -32 -54 55 55 67 82 155 213 188 276 13 26 20 30
49 26 42 -4 98 19 138 58 77 75 62 164 -29 164 l-37 0 38 115 c21 64 40 123
42 131 11 55 20 69 49 80 18 6 52 22 77 35 25 13 123 49 218 80 l174 57 130
-44 130 -43 40 -80 c56 -110 97 -172 125 -184 13 -6 46 -11 72 -11 l48 0 101
-106 100 -106 56 38 c30 22 55 42 56 46 0 4 -37 50 -81 104 -90 107 -89 95
-10 143 72 44 63 97 -41 249 -61 89 -101 128 -178 173 -30 18 -74 50 -97 71
-24 21 -51 38 -60 39 -101 3 -96 0 -267 176 -319 329 -761 756 -813 786 -8 5
-47 59 -87 120 -81 125 -190 260 -287 355 -127 126 -331 263 -411 277 -55 10
-37 -12 117 -141 113 -95 231 -210 306 -298 l34 -40 -55 40 c-115 85 -223 146
-325 185 l-50 19 60 -56 c262 -247 351 -342 398 -426 l48 -86 -18 -36 c-20
-42 -26 -44 -41 -12 -6 13 -37 66 -69 118 -32 51 -57 98 -55 104 1 6 -5 17
-13 24 -8 7 -15 9 -15 6 0 -10 -15 6 -82 89 -93 115 -240 254 -363 342 -281
202 -605 331 -945 376 -159 22 -474 15 -602 -13 -21 -4 -38 -5 -38 -1 0 7 67
21 180 39 63 9 483 8 555 -1 33 -5 103 -16 155 -24 116 -19 182 -22 187 -7 5
16 -112 71 -209 99 -131 37 -285 57 -434 58 -64 0 -231 -12 -267 -19 -12 -2
-49 -9 -82 -15 -347 -62 -691 -246 -966 -518 -37 -36 -100 -98 -140 -137 -41
-38 -93 -91 -116 -117 -24 -26 -43 -44 -43 -42 0 3 36 64 80 136 76 123 105
189 83 189 -9 0 -139 -132 -177 -180 -61 -77 -151 -225 -221 -365 l-80 -160
-40 6 c-65 11 -186 2 -255 -19 -105 -32 -235 -50 -209 -29 38 31 562 456 639
517 603 484 624 500 649 499 23 -1 111 34 257 102 47 22 287 107 318 113 12 2
48 11 81 19 273 70 647 83 910 32 39 -8 81 -16 95 -19 102 -19 299 -87 425
-147 96 -45 98 -45 35 -4 -67 45 -251 134 -349 169 -151 55 -324 95 -481 111
-59 7 -317 15 -322 10z m-283 -305 c-27 -12 -43 -12 -25 0 8 5 22 9 30 9 10 0
8 -3 -5 -9z m-68 -16 c-3 -3 -12 -4 -19 -1 -8 3 -5 6 6 6 11 1 17 -2 13 -5z
m2373 -942 c0 -24 -17 -9 -55 48 l-37 55 46 -45 c25 -24 46 -50 46 -58z m162
-149 c41 -47 131 -305 166 -478 39 -191 40 -176 -18 -206 l-50 -27 -5 22 c-2
11 -9 58 -15 103 -21 157 -99 421 -155 524 -14 25 -13 28 18 52 39 31 40 32
59 10z m-150 -43 c21 0 27 -11 55 -92 28 -80 51 -156 58 -193 31 -146 42 -220
51 -352 5 -71 4 -84 -10 -89 -9 -4 -18 -5 -20 -3 -2 2 -6 38 -10 79 -3 42 -13
113 -21 159 -8 46 -12 95 -9 108 5 17 0 34 -14 53 -11 15 -28 54 -38 86 -9 33
-21 65 -26 72 -6 6 -8 12 -5 12 3 0 -12 40 -33 90 -31 73 -35 88 -20 80 10 -6
29 -10 42 -10z m825 -637 c-2 -1 -47 10 -102 24 -72 19 -127 26 -196 27 -95 1
-96 1 -97 26 -2 60 -54 317 -78 385 -3 11 102 -88 234 -220 133 -131 240 -240
239 -242z"/>
<path d="M5275 6668 c-128 -45 -171 -192 -62 -212 123 -23 265 165 161 212
-30 14 -58 14 -99 0z"/>
<path d="M1204 4728 c-5 -7 -10 -65 -12 -128 -15 -416 206 -982 531 -1362 69
-81 187 -203 187 -194 0 3 -23 34 -51 68 -45 57 -146 201 -175 253 -54 95 -94
169 -118 220 -15 33 -32 68 -37 77 -24 47 -90 225 -122 328 -54 176 -75 268
-123 539 -32 185 -55 240 -80 199z"/>
</g>
</svg>
